<svg width="135" height="106" viewBox="0 0 135 106" fill="none" xmlns="http://www.w3.org/2000/svg">
<path d="M75.5471 42.151C74.9871 42.151 74.4721 42.041 74.0021 41.821C73.5321 41.601 73.1271 41.296 72.7871 40.906C72.4571 40.506 72.1971 40.041 72.0071 39.511C71.8271 38.971 71.7371 38.391 71.7371 37.771C71.7371 36.911 71.9071 36.096 72.2471 35.326C72.5971 34.556 73.0671 33.871 73.6571 33.271C74.2471 32.671 74.9121 32.201 75.6521 31.861C76.3921 31.521 77.1671 31.351 77.9771 31.351C78.9271 31.351 79.6971 31.566 80.2871 31.996C80.8871 32.416 81.2871 32.976 81.4871 33.676L79.7021 34.816C79.5721 34.286 79.3071 33.881 78.9071 33.601C78.5171 33.321 78.0571 33.181 77.5271 33.181C77.0371 33.181 76.5671 33.306 76.1171 33.556C75.6771 33.796 75.2871 34.121 74.9471 34.531C74.6071 34.941 74.3371 35.406 74.1371 35.926C73.9471 36.446 73.8521 36.986 73.8521 37.546C73.8521 38.066 73.9421 38.536 74.1221 38.956C74.3021 39.376 74.5621 39.711 74.9021 39.961C75.2421 40.201 75.6471 40.321 76.1171 40.321C76.6271 40.321 77.1421 40.181 77.6621 39.901C78.1821 39.621 78.6971 39.211 79.2071 38.671L78.7721 40.711C78.2521 41.201 77.7271 41.566 77.1971 41.806C76.6671 42.036 76.1171 42.151 75.5471 42.151ZM79.1771 38.116H77.1521L77.4821 36.601H81.2171L80.0471 42.076H78.3371L79.1771 38.116ZM85.1511 42.226C84.3911 42.226 83.7661 42.076 83.2761 41.776C82.7961 41.476 82.4411 41.076 82.2111 40.576C81.9811 40.066 81.8661 39.506 81.8661 38.896C81.8661 38.256 81.9811 37.646 82.2111 37.066C82.4511 36.486 82.7861 35.971 83.2161 35.521C83.6461 35.071 84.1511 34.721 84.7311 34.471C85.3211 34.211 85.9661 34.081 86.6661 34.081C87.4261 34.081 88.0461 34.231 88.5261 34.531C89.0161 34.831 89.3761 35.231 89.6061 35.731C89.8361 36.231 89.9511 36.791 89.9511 37.411C89.9511 38.051 89.8311 38.661 89.5911 39.241C89.3611 39.821 89.0311 40.336 88.6011 40.786C88.1711 41.236 87.6611 41.591 87.0711 41.851C86.4911 42.101 85.8511 42.226 85.1511 42.226ZM85.4511 40.516C85.7611 40.516 86.0611 40.446 86.3511 40.306C86.6411 40.166 86.8961 39.966 87.1161 39.706C87.3461 39.446 87.5261 39.141 87.6561 38.791C87.7961 38.441 87.8661 38.061 87.8661 37.651C87.8661 37.281 87.8061 36.956 87.6861 36.676C87.5761 36.396 87.4061 36.181 87.1761 36.031C86.9561 35.871 86.6861 35.791 86.3661 35.791C86.0561 35.791 85.7561 35.861 85.4661 36.001C85.1861 36.141 84.9311 36.341 84.7011 36.601C84.4711 36.861 84.2861 37.171 84.1461 37.531C84.0161 37.881 83.9511 38.261 83.9511 38.671C83.9511 39.031 84.0061 39.351 84.1161 39.631C84.2361 39.911 84.4061 40.131 84.6261 40.291C84.8561 40.441 85.1311 40.516 85.4511 40.516ZM57.8298 60.151C57.2698 60.151 56.7548 60.041 56.2848 59.821C55.8148 59.601 55.4098 59.296 55.0698 58.906C54.7398 58.506 54.4798 58.041 54.2898 57.511C54.1098 56.971 54.0198 56.391 54.0198 55.771C54.0198 54.911 54.1898 54.096 54.5298 53.326C54.8798 52.556 55.3498 51.871 55.9398 51.271C56.5298 50.671 57.1948 50.201 57.9348 49.861C58.6748 49.521 59.4498 49.351 60.2598 49.351C61.2098 49.351 61.9798 49.566 62.5698 49.996C63.1698 50.416 63.5698 50.976 63.7698 51.676L61.9848 52.816C61.8548 52.286 61.5898 51.881 61.1898 51.601C60.7998 51.321 60.3398 51.181 59.8098 51.181C59.3198 51.181 58.8498 51.306 58.3998 51.556C57.9598 51.796 57.5698 52.121 57.2298 52.531C56.8898 52.941 56.6198 53.406 56.4198 53.926C56.2298 54.446 56.1348 54.986 56.1348 55.546C56.1348 56.066 56.2248 56.536 56.4048 56.956C56.5848 57.376 56.8448 57.711 57.1848 57.961C57.5248 58.201 57.9298 58.321 58.3998 58.321C58.9098 58.321 59.4248 58.181 59.9448 57.901C60.4648 57.621 60.9798 57.211 61.4898 56.671L61.0548 58.711C60.5348 59.201 60.0098 59.566 59.4798 59.806C58.9498 60.036 58.3998 60.151 57.8298 60.151ZM61.4598 56.116H59.4348L59.7648 54.601H63.4998L62.3298 60.076H60.6198L61.4598 56.116ZM65.5288 52.216H67.3738L67.0138 53.896C67.3938 53.356 67.8188 52.931 68.2888 52.621C68.7688 52.301 69.2388 52.141 69.6988 52.141C69.7988 52.141 69.8738 52.146 69.9238 52.156C69.9838 52.156 70.0288 52.161 70.0588 52.171L69.6838 53.956C69.1138 53.956 68.5738 54.076 68.0638 54.316C67.5638 54.546 67.1688 54.881 66.8788 55.321L65.8738 60.076H63.8638L65.5288 52.216ZM73.0149 60.226C72.2549 60.226 71.6299 60.076 71.1399 59.776C70.6599 59.476 70.3049 59.076 70.0749 58.576C69.8449 58.066 69.7299 57.506 69.7299 56.896C69.7299 56.256 69.8449 55.646 70.0749 55.066C70.3149 54.486 70.6499 53.971 71.0799 53.521C71.5099 53.071 72.0149 52.721 72.5949 52.471C73.1849 52.211 73.8299 52.081 74.5299 52.081C75.2899 52.081 75.9099 52.231 76.3899 52.531C76.8799 52.831 77.2399 53.231 77.4699 53.731C77.6999 54.231 77.8149 54.791 77.8149 55.411C77.8149 56.051 77.6949 56.661 77.4549 57.241C77.2249 57.821 76.8949 58.336 76.4649 58.786C76.0349 59.236 75.5249 59.591 74.9349 59.851C74.3549 60.101 73.7149 60.226 73.0149 60.226ZM73.3149 58.516C73.6249 58.516 73.9249 58.446 74.2149 58.306C74.5049 58.166 74.7599 57.966 74.9799 57.706C75.2099 57.446 75.3899 57.141 75.5199 56.791C75.6599 56.441 75.7299 56.061 75.7299 55.651C75.7299 55.281 75.6699 54.956 75.5499 54.676C75.4399 54.396 75.2699 54.181 75.0399 54.031C74.8199 53.871 74.5499 53.791 74.2299 53.791C73.9199 53.791 73.6199 53.861 73.3299 54.001C73.0499 54.141 72.7949 54.341 72.5649 54.601C72.3349 54.861 72.1499 55.171 72.0099 55.531C71.8799 55.881 71.8149 56.261 71.8149 56.671C71.8149 57.031 71.8699 57.351 71.9799 57.631C72.0999 57.911 72.2699 58.131 72.4899 58.291C72.7199 58.441 72.9949 58.516 73.3149 58.516ZM81.7289 60.226C81.0289 60.226 80.4389 60.076 79.9589 59.776C79.4789 59.476 79.1189 59.076 78.8789 58.576C78.6389 58.066 78.5189 57.511 78.5189 56.911C78.5189 56.291 78.6389 55.691 78.8789 55.111C79.1189 54.531 79.4539 54.016 79.8839 53.566C80.3239 53.106 80.8439 52.746 81.4439 52.486C82.0439 52.216 82.7039 52.081 83.4239 52.081C84.2639 52.081 84.9289 52.266 85.4189 52.636C85.9189 53.006 86.2489 53.491 86.4089 54.091L84.3389 54.691C84.2389 54.401 84.0789 54.181 83.8589 54.031C83.6389 53.871 83.3739 53.791 83.0639 53.791C82.7539 53.791 82.4489 53.866 82.1489 54.016C81.8589 54.156 81.5939 54.361 81.3539 54.631C81.1239 54.891 80.9389 55.196 80.7989 55.546C80.6689 55.896 80.6039 56.271 80.6039 56.671C80.6039 57.031 80.6639 57.351 80.7839 57.631C80.9039 57.911 81.0739 58.131 81.2939 58.291C81.5139 58.441 81.7689 58.516 82.0589 58.516C82.2789 58.516 82.4939 58.476 82.7039 58.396C82.9239 58.316 83.1239 58.206 83.3039 58.066C83.4839 57.926 83.6289 57.766 83.7389 57.586L85.5689 58.186C85.3089 58.576 84.9839 58.926 84.5939 59.236C84.2039 59.546 83.7639 59.791 83.2739 59.971C82.7939 60.141 82.2789 60.226 81.7289 60.226ZM89.8738 60.226C89.2138 60.226 88.6388 60.086 88.1488 59.806C87.6688 59.516 87.2988 59.121 87.0388 58.621C86.7888 58.111 86.6638 57.536 86.6638 56.896C86.6638 56.246 86.7888 55.631 87.0388 55.051C87.2888 54.471 87.6388 53.961 88.0888 53.521C88.5388 53.071 89.0638 52.721 89.6638 52.471C90.2638 52.211 90.9138 52.081 91.6138 52.081C92.1838 52.081 92.6788 52.166 93.0988 52.336C93.5188 52.506 93.8438 52.756 94.0738 53.086C94.3038 53.406 94.4188 53.801 94.4188 54.271C94.4188 55.101 94.0388 55.731 93.2788 56.161C92.5288 56.591 91.3988 56.806 89.8888 56.806C89.5888 56.806 89.2638 56.801 88.9138 56.791C88.5638 56.771 88.1838 56.741 87.7738 56.701L88.0288 55.441C88.3888 55.471 88.7188 55.496 89.0188 55.516C89.3188 55.526 89.6138 55.531 89.9038 55.531C90.5538 55.531 91.0638 55.486 91.4338 55.396C91.8138 55.306 92.0888 55.176 92.2588 55.006C92.4288 54.836 92.5138 54.636 92.5138 54.406C92.5138 54.206 92.4638 54.046 92.3638 53.926C92.2638 53.796 92.1238 53.701 91.9438 53.641C91.7738 53.571 91.5688 53.536 91.3288 53.536C90.9388 53.536 90.5788 53.631 90.2488 53.821C89.9288 54.001 89.6488 54.251 89.4088 54.571C89.1688 54.891 88.9838 55.256 88.8538 55.666C88.7238 56.076 88.6588 56.511 88.6588 56.971C88.6588 57.311 88.7138 57.621 88.8238 57.901C88.9438 58.171 89.1188 58.381 89.3488 58.531C89.5788 58.681 89.8738 58.756 90.2338 58.756C90.6338 58.756 91.0088 58.661 91.3588 58.471C91.7188 58.281 92.0038 58.016 92.2138 57.676L93.8038 58.171C93.5438 58.571 93.2038 58.926 92.7838 59.236C92.3638 59.546 91.9038 59.791 91.4038 59.971C90.9038 60.141 90.3938 60.226 89.8738 60.226ZM96.2905 52.216H98.1355L97.7755 53.896C98.1555 53.356 98.5805 52.931 99.0505 52.621C99.5305 52.301 100.001 52.141 100.461 52.141C100.561 52.141 100.636 52.146 100.686 52.156C100.746 52.156 100.791 52.161 100.821 52.171L100.446 53.956C99.8755 53.956 99.3355 54.076 98.8255 54.316C98.3255 54.546 97.9305 54.881 97.6405 55.321L96.6355 60.076H94.6255L96.2905 52.216ZM99.6945 61.966C100.094 61.936 100.419 61.886 100.669 61.816C100.929 61.746 101.154 61.631 101.344 61.471C101.534 61.321 101.729 61.106 101.929 60.826L102.364 60.241L101.059 52.216H103.114L103.789 58.336L104.299 57.496C104.609 56.986 104.879 56.511 105.109 56.071C105.349 55.621 105.554 55.191 105.724 54.781C105.904 54.361 106.059 53.941 106.189 53.521C106.319 53.101 106.439 52.666 106.549 52.216H108.499C108.369 52.696 108.224 53.151 108.064 53.581C107.904 54.001 107.714 54.441 107.494 54.901C107.274 55.361 106.994 55.881 106.654 56.461C106.324 57.041 105.909 57.731 105.409 58.531L104.209 60.466C103.859 61.026 103.519 61.496 103.189 61.876C102.869 62.266 102.539 62.581 102.199 62.8211C101.869 63.0611 101.519 63.2311 101.149 63.331C100.779 63.441 100.374 63.5011 99.9345 63.5111L99.6945 61.966Z" fill="#479343"/>
<path d="M0 5H17.1899C19.2644 5 21.1234 6.28099 21.8621 8.21949L26.9989 21.699M26.9989 21.699L45.6118 70.541C46.3506 72.4795 48.2096 73.7605 50.2841 73.7605H110.731C112.872 73.7605 114.776 72.3966 115.465 70.3689L129.755 28.3074C130.857 25.0645 128.446 21.699 125.021 21.699H26.9989Z" stroke="#479343" stroke-width="9"/>
<circle cx="51.1939" cy="94.3384" r="11.5437" fill="#479343"/>
<circle cx="109.916" cy="94.3384" r="11.5437" fill="#479343"/>
</svg>
