<?xml version="1.0" encoding="UTF-8"?><svg id="Layer_2" xmlns="http://www.w3.org/2000/svg" viewBox="0 0 1366 768"><defs><style>.cls-1{fill:none;stroke:#240031;stroke-miterlimit:10;}</style></defs><path id="zone1" class="cls-1" d="M502,684l-13-6,6.5-8.74s0-2.76,13-4.76,200-48,200-48l-7.5-4.92-204.5,47.92s-3,.3-7.5,6.15-9.5,13.85-9.5,13.85c0,0-1.67,2,3.67,4.5s14.33,5.5,14.33,5.5c0,0,1,1,3-1s1.5-4.5,1.5-4.5Z"/><path class="cls-1" d="M1142,335s1,6-5,6-101-36-101-36l-6-5-36-34-28,11-4-6,30-13s4-2,8,3,36,34,36,34c0,0,3.53,3.6,6.76,4.3s99.24,35.7,99.24,35.7Z"/><path class="cls-1" d="M874.5,370.5l8,2,83.5-95.5-4-6s-89.5,97.5-87.5,99.5Z"/><polygon class="cls-1" points="888.5 439.5 882.5 372.5 874.5 370.5 881.5 436.58 888.5 439.5"/><polyline class="cls-1" points="701 611.58 749.5 581.5 881.5 436.58 888.5 439.5 752.5 588.5 708.5 616.5 814 599 811 594 720.64 608.78"/><polygon class="cls-1" points="916.5 471.5 811 594 814 599 922.5 472.5 916.5 471.5"/><polygon class="cls-1" points="909.5 378.5 915.5 381.5 922.5 472.5 916.5 471.5 909.5 378.5"/><polygon class="cls-1" points="988.5 289.5 993.5 292.5 915.5 381.5 909.5 378.5 988.5 289.5"/><polygon class="cls-1" points="994 266 990.55 267.36 988.5 289.5 993.5 292.5 996.48 268.34 994 266"/></svg>