<?xml version="1.0" encoding="UTF-8"?><svg id="map" xmlns="http://www.w3.org/2000/svg" viewBox="0 0 1366 768"><defs><style>.cls-1{fill:none;stroke:#000;stroke-miterlimit:10;}.cls-2{font-family:MyriadPro-Regular, 'Myriad Pro';font-size:12px;}.cls-3{letter-spacing:.01em;}</style></defs><path id="section0" class="cls-1" d="M699,613l-205.5,47.5-14.14,17.91c-.45,.57-.27,1.4,.37,1.74l18.32,9.6c.78,.41,1.74,.07,2.08-.74l1.74-4.07c.34-.78-.05-1.69-.84-2l-10.17-3.91c-.7-.27-.96-1.12-.53-1.73l6.16-8.8,204.5-47.61,10-4.89-12-3Z"/><polygon id="section1" class="cls-1" points="749 582 699 613 711 616 814 599 811 595 752 588 749 582"/><polygon id="section2" class="cls-1" points="880 438 887 440 917 471 922 474 814 599 811 595 752 588 749 582 880 438"/><polygon id="section3" class="cls-1" points="880 438 874.5 367.5 915.5 381.5 922 474 917 471 887 440 880 438"/><polygon id="section4" class="cls-1" points="874.5 367.5 961.33 271.73 994.5 257.56 996.5 269.5 994.5 292.58 915.5 381.5 874.5 367.5"/><path id="section5" class="cls-1" d="M1141.5,335.5l-104-39-43-38.94,2,11.94,37,33,104,39s6,0,4-6Z"/><text id="section0_label" class="cls-2" transform="translate(569.89 624.49)"><tspan x="0" y="0">se</tspan><tspan class="cls-3" x="10.76" y="0">c</tspan><tspan x="16.3" y="0">tion 0</tspan></text><text id="section1_label" class="cls-2" transform="translate(749.33 624.08)"><tspan x="0" y="0">se</tspan><tspan class="cls-3" x="10.76" y="0">c</tspan><tspan x="16.3" y="0">tion 1</tspan></text><text id="section2_label" class="cls-2" transform="translate(855.33 572.08)"><tspan x="0" y="0">se</tspan><tspan class="cls-3" x="10.76" y="0">c</tspan><tspan x="16.3" y="0">tion 2</tspan></text><text id="section3_label" class="cls-2" transform="translate(927.33 421.08)"><tspan x="0" y="0">se</tspan><tspan class="cls-3" x="10.76" y="0">c</tspan><tspan x="16.3" y="0">tion 3</tspan></text><text id="section4_label" class="cls-2" transform="translate(961.33 349.08)"><tspan x="0" y="0">se</tspan><tspan class="cls-3" x="10.76" y="0">c</tspan><tspan x="16.3" y="0">tion 4</tspan></text><text id="section5_label" class="cls-2" transform="translate(1040.33 283.08)"><tspan x="0" y="0">se</tspan><tspan class="cls-3" x="10.76" y="0">c</tspan><tspan x="16.3" y="0">tion 5</tspan></text></svg>